# xmcd CD database file generated by Grip 2.96
# 
# Track frame offsets:
#       150
#       14390
#       34185
#       44526
#       56019
#       68345
#       78238
#       93471
#       107602
#       119905
#       127793
#       140865
# 
# Disc length: 2019 seconds
# 
# Revision: 0
# Processed by: cddbd v1.4PL0 Copyright (c) Steve Scherf et al.
# Submitted via: Grip 2.96
# 
DISCID=a307e10c
DTITLE=Teja and Luke - Better Day
DYEAR=1900
DGENRE=
TTITLE0=The Stuff Ya Gotta Watch
TTITLE1=Avalon
TTITLE2=Ice Cream Man
TTITLE3=San Francisco Bay Blues
TTITLE4=Bad Feeling Blues
TTITLE5=Cakewalk
TTITLE6=Dock of the Bay
TTITLE7=Fishing Blues
TTITLE8=Drinking Cheap Whiskey
TTITLE9=Jitterbug Rag
TTITLE10=Hush Hush
TTITLE11=Better Day
EXTD=
EXTT0=
EXTT1=
EXTT2=
EXTT3=
EXTT4=
EXTT5=
EXTT6=
EXTT7=
EXTT8=
EXTT9=
EXTT10=
EXTT11=
PLAYORDER=
